<?xml version="1.0" encoding="UTF-8" standalone="no"?>
<svg
   xmlns:dc="http://purl.org/dc/elements/1.1/"
   xmlns:cc="http://creativecommons.org/ns#"
   xmlns:rdf="http://www.w3.org/1999/02/22-rdf-syntax-ns#"
   xmlns:svg="http://www.w3.org/2000/svg"
   xmlns="http://www.w3.org/2000/svg"
   xmlns:sodipodi="http://sodipodi.sourceforge.net/DTD/sodipodi-0.dtd"
   xmlns:inkscape="http://www.inkscape.org/namespaces/inkscape"
   version="1.1"
   id="svg2"
   sodipodi:docname="logo-white.svg"
   inkscape:version="0.92+devel unknown"
   x="0px"
   y="0px"
   width="44.629993"
   height="35"
   viewBox="15.142 -49.2 41.840617 32.812501"
   enable-background="new 15.142 -49.2 811.994 304.645"
   xml:space="preserve"><metadata
     id="metadata53"><rdf:RDF><cc:Work
         rdf:about=""><dc:format>image/svg+xml</dc:format><dc:type
           rdf:resource="http://purl.org/dc/dcmitype/StillImage" /><dc:title></dc:title></cc:Work></rdf:RDF></metadata><defs
     id="defs51" /><sodipodi:namedview
     borderopacity="1"
     inkscape:pageopacity="0"
     inkscape:cy="-0.0072499608"
     id="namedview10"
     gridtolerance="10"
     inkscape:cx="36.228959"
     inkscape:zoom="6.338889"
     pagecolor="#ffffff"
     objecttolerance="10"
     showgrid="false"
     inkscape:pageshadow="2"
     guidetolerance="10"
     inkscape:window-height="1016"
     inkscape:window-width="1920"
     bordercolor="#666666"
     inkscape:current-layer="g4"
     inkscape:document-rotation="0"
     inkscape:window-x="0"
     inkscape:window-y="27"
     inkscape:window-maximized="1"
     fit-margin-top="0"
     fit-margin-left="0"
     fit-margin-right="0"
     fit-margin-bottom="0"
     inkscape:pagecheckerboard="true" /><g
     id="g4"
     transform="translate(-423.83299,431.48947)"><path
       id="path6"
       fill="#E4F2D5"
       d="m 444.34722,-468.14058 c -2.96695,0 -5.37223,2.32992 -5.37223,5.20216 0,2.87202 2.40528,5.19607 5.37223,5.19607 2.96705,0 5.3664,-2.32405 5.3664,-5.19607 0,-2.87224 -2.39956,-5.20216 -5.3664,-5.20216 z m 0,0.82349 c 1.87523,0 3.39308,1.96381 3.39308,4.37898 0,2.41496 -1.51706,4.37306 -3.39308,4.37306 -1.87529,0 -3.39885,-1.95614 -3.39885,-4.37306 6e-5,-2.41506 1.5234,-4.37898 3.39885,-4.37898 z"
       inkscape:connector-curvature="0"
       style="display:inline;opacity:0.97000002;fill:#ffffff;fill-opacity:0.94117647;stroke-width:0.05288301" /><path
       id="path8"
       fill="#FFFFFF"
       d="m 480.81561,-467.05971 v -0.80302 h -3.09688 v -3.85401 h -0.34406 c -0.27536,1.37644 -0.66537,2.93606 -1.46824,3.85401 h -1.72055 v 0.80302 h 1.72055 v 7.06729 c 0,2.04129 1.62896,2.2717 2.33954,2.2717 l 2.38603,-1.03244 h -1.14714 c -0.91762,0 -1.7665,-0.48181 -1.7665,-2.01801 v -6.28668 h 3.09688 m -11.73596,-1.06692 -3.23422,0.50466 c 0.75708,0.52772 1.62896,1.05534 1.62896,1.53715 v 8.12083 h 1.85836 v -6.49166 c 0,-1.55994 0.91773,-2.08777 1.5371,-2.08777 0.39011,0 0.78023,-0.0688 1.5372,0.27537 0.27515,0.22951 0.25231,0.82582 0.34417,0.82582 l 0.94063,-1.69771 c 0,-0.43596 -0.27537,-0.98648 -1.03244,-0.98648 -0.91762,0 -1.6747,0.43597 -3.32729,1.62896 l -0.25231,-1.62896 m -8.23103,0.50371 c 0.48039,0.41286 1.65085,0.85623 1.67459,1.53715 v 8.12072 h 1.88126 v -10.04735 l -0.023,-0.1147 -3.53243,0.50466 m 3.9161,-3.58092 c 0,0.69308 -0.56188,1.25497 -1.25502,1.25497 -0.69303,0 -1.25492,-0.56189 -1.25492,-1.25497 0,-0.69309 0.56167,-1.25486 1.25492,-1.25486 0.69303,0 1.25502,0.56177 1.25502,1.25486 z m -17.32342,-1.51949 c 0.37478,0.25236 0.74946,0.50472 1.12424,0.75707 l 2.95944,7.18073 2.52352,6.8135 h 1.39945 l 2.86774,-7.34112 c 0.91773,-2.38598 2.36307,-5.80407 2.93659,-6.95121 l 0.50466,-0.45876 h -1.46824 l 0.0229,0.1147 -2.27116,6.21699 -2.54669,6.1256 -0.29821,-0.0458 -2.17942,-5.48313 -2.54647,-6.56093 c -0.0229,-0.1377 -0.0229,-0.25236 -0.0229,-0.36706 h -3.00535"
       inkscape:connector-curvature="0"
       style="stroke-width:0.05288301" /></g></svg>